<svg width="137" height="137" viewBox="0 0 137 137" fill="none" xmlns="http://www.w3.org/2000/svg">
<path d="M79.687 110.099C102.631 103.952 116.246 80.3684 110.099 57.4248C103.951 34.4811 80.3677 20.8653 57.424 27.0131C34.4804 33.1608 20.8646 56.744 27.0123 79.6877C33.1601 102.631 56.7433 116.247 79.687 110.099Z" fill="#92D3F5"/>
<path d="M79.687 110.099C102.631 103.952 116.246 80.3684 110.099 57.4248C103.951 34.4811 80.3677 20.8653 57.424 27.0131C34.4804 33.1608 20.8646 56.744 27.0123 79.6877C33.1601 102.631 56.7433 116.247 79.687 110.099Z" stroke="#2E2E2E" stroke-width="3" stroke-miterlimit="10" stroke-linecap="round" stroke-linejoin="round"/>
<path d="M57.4239 27.0132L79.6868 110.1C66.9859 113.503 51.706 97.6622 45.5582 74.7185C39.4105 51.7748 44.7229 30.4164 57.4239 27.0132ZM57.4239 27.0132C70.1248 23.61 85.4047 39.4507 91.5525 62.3944C97.7002 85.3381 92.3877 106.696 79.6868 110.1" stroke="#2E2E2E" stroke-width="3" stroke-miterlimit="10" stroke-linecap="round" stroke-linejoin="round"/>
<path d="M110.099 57.4248L27.0127 79.6877" stroke="#2E2E2E" stroke-width="3" stroke-miterlimit="10" stroke-linecap="round" stroke-linejoin="round"/>
<path d="M98.5977 38.2432L27.3809 57.3257" stroke="#2E2E2E" stroke-width="3" stroke-miterlimit="10" stroke-linecap="round" stroke-linejoin="round"/>
<path d="M109.73 79.7866L38.5127 98.8691" stroke="#2E2E2E" stroke-width="3" stroke-miterlimit="10" stroke-linecap="round" stroke-linejoin="round"/>
</svg>
