<svg width="40" height="34" viewBox="0 0 40 34" fill="none" xmlns="http://www.w3.org/2000/svg">
<path d="M30.215 8H3.485C2.66486 8 2 8.67997 2 9.51875V30.7812C2 31.62 2.66486 32.3 3.485 32.3H30.215C31.0351 32.3 31.7 31.62 31.7 30.7812V9.51875C31.7 8.67997 31.0351 8 30.215 8Z" stroke="#2E2E2E" stroke-width="3" stroke-linecap="round" stroke-linejoin="round"/>
<path d="M8.2998 1.7002H36.5148C36.9087 1.7002 37.2864 1.86021 37.5649 2.14503C37.8434 2.42985 37.9998 2.81615 37.9998 3.21895V26.0002" stroke="#2E2E2E" stroke-width="3" stroke-linecap="round" stroke-linejoin="round"/>
<path d="M17 12V15" stroke="#2E2E2E" stroke-width="2" stroke-linecap="round" stroke-linejoin="round"/>
<path d="M17 25V28" stroke="#2E2E2E" stroke-width="2" stroke-linecap="round" stroke-linejoin="round"/>
<path d="M14 25H18.5C19.163 25 19.7989 24.7366 20.2678 24.2678C20.7366 23.7989 21 23.163 21 22.5C21 21.837 20.7366 21.2011 20.2678 20.7322C19.7989 20.2634 19.163 20 18.5 20H15.5C14.837 20 14.2011 19.7366 13.7322 19.2678C13.2634 18.7989 13 18.163 13 17.5C13 16.837 13.2634 16.2011 13.7322 15.7322C14.2011 15.2634 14.837 15 15.5 15H20" stroke="#2E2E2E" stroke-width="2" stroke-linecap="round" stroke-linejoin="round"/>
</svg>
