<svg width="112" height="105" viewBox="0 0 112 105" fill="none" xmlns="http://www.w3.org/2000/svg">
<path d="M93.7501 17.7327C72.9452 -1.84577 39.0196 -2.04209 17.9457 17.2865C-3.12812 36.5972 -3.33943 68.1334 17.4655 87.694C38.2704 107.255 72.196 107.469 93.2506 88.1402C114.324 68.8294 114.536 37.3111 93.7501 17.7327ZM70.8513 57.2108C68.181 65.0279 59.1905 69.3648 50.7764 66.8841C42.343 64.4033 37.6941 56.0508 40.3643 48.2337C43.0346 40.4166 52.025 36.0797 60.4584 38.5604C68.8534 41.0412 73.5215 49.3937 70.8513 57.2108Z" fill="#E8E8E8" stroke="#2E2E2E" stroke-width="4" stroke-miterlimit="10"/>
<path d="M23.4852 81.9725L23.4845 81.9718C6.06334 65.5826 6.24463 39.2501 23.888 23.08C41.6173 6.83113 70.2256 7.00478 87.7112 23.4549C105.132 39.844 104.951 66.1765 87.3077 82.3467L87.3069 82.3474C69.5779 98.6131 40.9707 98.4395 23.4852 81.9725ZM61.0249 36.6424L61.0225 36.6417C51.6654 33.8892 41.5218 38.6571 38.4714 47.5871C35.3952 56.5925 40.8021 66.0342 50.2104 68.8024C59.5507 71.5562 69.6936 66.7859 72.7436 57.8573C75.8203 48.8504 70.392 39.4105 61.0249 36.6424ZM50.2084 57.4516L50.2046 57.4481C47.368 54.7853 47.3917 50.531 50.2638 47.8878C53.2397 45.1668 58.0639 45.1988 60.9874 47.9394C63.8354 50.6441 63.7983 54.8854 60.9294 57.5233C57.9751 60.2397 53.1333 60.2115 50.2084 57.4516Z" fill="#E8E8E8" stroke="#2E2E2E" stroke-width="4"/>
<path d="M22.537 21.6056C17.1773 26.5136 13.412 32.3318 11.126 38.5248L37.8093 47.0379C38.7122 44.5571 40.2298 42.237 42.3621 40.2738C44.5137 38.3106 47.0303 36.9364 49.7005 36.1154L40.9021 11.2184C34.2169 13.2709 27.8967 16.6976 22.537 21.6056Z" fill="#F9385B"/>
<path d="M88.6593 83.8211C94.019 78.9132 97.7843 73.0949 100.07 66.9019L73.387 58.3888C72.4841 60.8696 70.9665 63.1897 68.8149 65.1529C66.6826 67.1161 64.1468 68.4903 61.4766 69.3113L70.2942 94.2083C76.9794 92.1558 83.2996 88.7291 88.6593 83.8211Z" fill="#F9385B"/>
<path d="M61.2843 36.0439C61.8798 36.2224 62.4561 36.4187 63.0324 36.6507L74.1745 12.5569C72.7721 11.9858 71.3121 11.4861 69.8137 11.0399C68.3345 10.6116 66.8169 10.2368 65.3185 9.95123L59.4785 35.6156C60.0932 35.7227 60.6888 35.8655 61.2843 36.0439Z" fill="#F9385B"/>
</svg>
