<svg width="125" height="28" viewBox="0 0 125 28" fill="none" xmlns="http://www.w3.org/2000/svg">
<path d="M63.184 3.55862L66.5544 10.2901L74.0182 11.337L68.6518 16.623L69.9642 24.0447L63.2778 20.5779L56.6274 24.1144L57.8633 16.6801L52.4411 11.4512L59.8903 10.3263L63.184 3.55862Z" fill="black"/>
<path d="M63.184 3.55862L66.5544 10.2901L74.0182 11.337L68.6518 16.623L69.9642 24.0447L63.2778 20.5779L56.6274 24.1144L57.8633 16.6801L52.4411 11.4512L59.8903 10.3263L63.184 3.55862Z" stroke="black" stroke-width="0.5785" stroke-miterlimit="10"/>
<path d="M62.5998 2.44725L65.9676 9.18732L73.4314 10.2343L68.0651 15.5203L69.3774 22.9419L62.685 19.4639L56.032 23.009L57.2679 15.5747L51.8457 10.3458L59.3035 9.2235L62.5998 2.44725Z" fill="#FFE600"/>
<path d="M62.5998 2.44725L65.9676 9.18732L73.4314 10.2343L68.0651 15.5203L69.3774 22.9419L62.685 19.4639L56.032 23.009L57.2679 15.5747L51.8457 10.3458L59.3035 9.2235L62.5998 2.44725Z" stroke="black" stroke-width="0.5785" stroke-miterlimit="10"/>
<path d="M111.848 3.55862L115.218 10.2901L122.682 11.337L117.316 16.623L118.628 24.0447L111.942 20.5779L105.292 24.1144L106.527 16.6801L101.105 11.4512L108.554 10.3263L111.848 3.55862Z" fill="black"/>
<path d="M111.848 3.55862L115.218 10.2901L122.682 11.337L117.316 16.623L118.628 24.0447L111.942 20.5779L105.292 24.1144L106.527 16.6801L101.105 11.4512L108.554 10.3263L111.848 3.55862Z" stroke="black" stroke-width="0.5785" stroke-miterlimit="10"/>
<path d="M111.264 2.44725L114.632 9.18732L122.095 10.2343L116.729 15.5203L118.041 22.9419L111.349 19.4639L104.696 23.009L105.932 15.5747L100.51 10.3458L107.968 9.2235L111.264 2.44725Z" fill="#FFE600"/>
<path d="M111.264 2.44725L114.632 9.18732L122.095 10.2343L116.729 15.5203L118.041 22.9419L111.349 19.4639L104.696 23.009L105.932 15.5747L100.51 10.3458L107.968 9.2235L111.264 2.44725Z" stroke="black" stroke-width="0.5785" stroke-miterlimit="10"/>
<path d="M38.852 3.55862L42.2223 10.2901L49.6861 11.337L44.3198 16.623L45.6322 24.0447L38.9457 20.5779L32.2954 24.1144L33.5313 16.6801L28.1091 11.4512L35.5583 10.3263L38.852 3.55862Z" fill="black"/>
<path d="M38.852 3.55862L42.2223 10.2901L49.6861 11.337L44.3198 16.623L45.6322 24.0447L38.9457 20.5779L32.2954 24.1144L33.5313 16.6801L28.1091 11.4512L35.5583 10.3263L38.852 3.55862Z" stroke="black" stroke-width="0.5785" stroke-miterlimit="10"/>
<path d="M38.2678 2.44725L41.6355 9.18732L49.0993 10.2343L43.733 15.5203L45.0454 22.9419L38.353 19.4639L31.7 23.009L32.9359 15.5747L27.5137 10.3458L34.9715 9.2235L38.2678 2.44725Z" fill="#FFE600"/>
<path d="M38.2678 2.44725L41.6355 9.18732L49.0993 10.2343L43.733 15.5203L45.0454 22.9419L38.353 19.4639L31.7 23.009L32.9359 15.5747L27.5137 10.3458L34.9715 9.2235L38.2678 2.44725Z" stroke="black" stroke-width="0.5785" stroke-miterlimit="10"/>
<path d="M14.7787 3.55862L18.1491 10.2901L25.6129 11.337L20.2466 16.623L21.5589 24.0447L14.8725 20.5779L8.22217 24.1144L9.45803 16.6801L4.03582 11.4512L11.485 10.3263L14.7787 3.55862Z" fill="black"/>
<path d="M14.7787 3.55862L18.1491 10.2901L25.6129 11.337L20.2466 16.623L21.5589 24.0447L14.8725 20.5779L8.22217 24.1144L9.45803 16.6801L4.03582 11.4512L11.485 10.3263L14.7787 3.55862Z" stroke="black" stroke-width="0.5785" stroke-miterlimit="10"/>
<path d="M14.1946 2.44725L17.5623 9.18732L25.0261 10.2343L19.6598 15.5203L20.9721 22.9419L14.2797 19.4639L7.62677 23.009L8.86263 15.5747L3.44041 10.3458L10.8982 9.2235L14.1946 2.44725Z" fill="#FFE600"/>
<path d="M14.1946 2.44725L17.5623 9.18732L25.0261 10.2343L19.6598 15.5203L20.9721 22.9419L14.2797 19.4639L7.62677 23.009L8.86263 15.5747L3.44041 10.3458L10.8982 9.2235L14.1946 2.44725Z" stroke="black" stroke-width="0.5785" stroke-miterlimit="10"/>
<path d="M87.516 3.55862L90.8864 10.2901L98.3502 11.337L92.9839 16.623L94.2962 24.0447L87.6098 20.5779L80.9595 24.1144L82.1953 16.6801L76.7731 11.4512L84.2223 10.3263L87.516 3.55862Z" fill="black"/>
<path d="M87.516 3.55862L90.8864 10.2901L98.3502 11.337L92.9839 16.623L94.2962 24.0447L87.6098 20.5779L80.9595 24.1144L82.1953 16.6801L76.7731 11.4512L84.2223 10.3263L87.516 3.55862Z" stroke="black" stroke-width="0.5785" stroke-miterlimit="10"/>
<path d="M86.9319 2.44725L90.2996 9.18732L97.7634 10.2343L92.3971 15.5203L93.7095 22.9419L87.017 19.4639L80.3641 23.009L81.5999 15.5747L76.1777 10.3458L83.6355 9.2235L86.9319 2.44725Z" fill="#FFE600"/>
<path d="M86.9319 2.44725L90.2996 9.18732L97.7634 10.2343L92.3971 15.5203L93.7095 22.9419L87.017 19.4639L80.3641 23.009L81.5999 15.5747L76.1777 10.3458L83.6355 9.2235L86.9319 2.44725Z" stroke="black" stroke-width="0.5785" stroke-miterlimit="10"/>
</svg>
