<svg width="48" height="48" viewBox="0 0 48 48" fill="none" xmlns="http://www.w3.org/2000/svg">
<path d="M24 35C30.0751 35 35 30.0751 35 24C35 17.9249 30.0751 13 24 13C17.9249 13 13 17.9249 13 24C13 30.0751 17.9249 35 24 35Z" stroke="#2E2E2E" stroke-width="3" stroke-linecap="round" stroke-linejoin="round"/>
<path d="M36.2052 10.2171C36.7603 10.7284 37.2862 11.2543 37.7829 11.7948L43.7649 12.6494C44.7396 14.3421 45.4909 16.154 46 18.0398L42.3626 22.8825C42.3626 22.8825 42.4283 24.3725 42.3626 25.1175L46 29.9602C45.4933 31.8468 44.7419 33.659 43.7649 35.3506L37.7829 36.2052C37.7829 36.2052 36.753 37.2789 36.2052 37.7829L35.3506 43.7649C33.6579 44.7396 31.846 45.4909 29.9602 46L25.1175 42.3626C24.374 42.4283 23.626 42.4283 22.8825 42.3626L18.0398 46C16.1532 45.4933 14.341 44.7419 12.6494 43.7649L11.7948 37.7829C11.2543 37.2716 10.7284 36.7457 10.2171 36.2052L4.23506 35.3506C3.26036 33.6579 2.50909 31.846 2 29.9602L5.63745 25.1175C5.63745 25.1175 5.57171 23.6275 5.63745 22.8825L2 18.0398C2.50673 16.1532 3.25812 14.341 4.23506 12.6494L10.2171 11.7948C10.7284 11.2543 11.2543 10.7284 11.7948 10.2171L12.6494 4.23506C14.3421 3.26036 16.154 2.50909 18.0398 2L22.8825 5.63745C23.626 5.5717 24.374 5.5717 25.1175 5.63745L29.9602 2C31.8468 2.50673 33.659 3.25812 35.3506 4.23506L36.2052 10.2171Z" stroke="#2E2E2E" stroke-width="3" stroke-linecap="round" stroke-linejoin="round"/>
</svg>
